<?xml version="1.0" standalone="no"?>
<!DOCTYPE svg PUBLIC "-//W3C//DTD SVG 20010904//EN"
 "http://www.w3.org/TR/2001/REC-SVG-20010904/DTD/svg10.dtd">
<svg version="1.0" xmlns="http://www.w3.org/2000/svg"
 width="260.000000pt" height="260.000000pt" viewBox="0 0 260.000000 260.000000"
 preserveAspectRatio="xMidYMid meet">
<metadata>
Created by potrace 1.14, written by Peter Selinger 2001-2017
</metadata>
<g transform="translate(0.000000,260.000000) scale(0.100000,-0.100000)"
fill="#000000" stroke="none">
<path d="M2472 2428 c2 -7 -3 -12 -9 -10 -7 1 -13 -2 -13 -8 0 -14 16 -12 29
4 8 10 9 16 1 21 -6 4 -9 1 -8 -7z"/>
<path d="M2424 2422 c3 -6 1 -14 -5 -17 -5 -4 -8 -13 -6 -19 3 -8 -9 -18 -29
-25 -19 -7 -34 -17 -34 -22 0 -6 10 -3 22 5 28 20 43 21 26 2 -7 -8 -16 -12
-21 -9 -4 2 -10 -3 -13 -11 -3 -9 -10 -13 -15 -10 -9 5 -13 -10 -10 -30 1 -5
-5 -4 -13 3 -13 11 -17 10 -22 -3 -3 -9 -11 -13 -16 -10 -6 4 -5 -2 1 -14 7
-14 8 -23 1 -27 -6 -4 -7 -11 -4 -17 4 -7 2 -8 -5 -4 -6 4 -9 11 -6 16 3 5 1
12 -5 15 -6 4 -10 3 -9 -2 3 -20 -2 -33 -13 -30 -6 1 -14 -7 -16 -18 -5 -25
-21 -45 -35 -45 -6 0 -2 7 9 15 10 8 14 15 7 15 -6 0 -18 -8 -25 -19 -7 -10
-17 -20 -23 -22 -13 -6 -16 -29 -2 -29 5 0 7 -3 4 -6 -4 -4 -13 -1 -22 6 -13
11 -14 10 -9 -6 4 -10 4 -16 -1 -12 -4 4 -14 0 -22 -10 -8 -9 -11 -11 -7 -3 4
9 3 12 -4 8 -12 -8 -11 -25 3 -47 8 -13 7 -13 -8 -1 -13 10 -20 11 -30 2 -8
-6 -17 -7 -22 -3 -4 4 -2 -4 4 -16 7 -13 10 -26 7 -30 -3 -3 -6 0 -6 6 0 7 -5
12 -11 12 -5 0 -7 -5 -3 -12 5 -8 2 -9 -11 -4 -15 5 -16 4 -6 -8 9 -11 9 -16
0 -22 -8 -4 -9 -3 -5 4 4 7 1 12 -8 12 -10 0 -13 -6 -9 -17 3 -10 2 -15 -2
-10 -10 9 -45 -21 -45 -39 0 -7 -5 -16 -12 -20 -7 -5 -9 -2 -4 7 4 8 1 6 -7
-3 -8 -10 -16 -17 -18 -15 -2 1 2 -4 10 -10 19 -16 7 -17 -22 -1 -21 11 -21
10 -7 -7 14 -17 13 -18 -2 -12 -13 4 -15 2 -11 -10 5 -12 3 -14 -7 -8 -10 6
-12 4 -6 -10 6 -16 4 -16 -10 -4 -16 13 -16 12 -4 -11 12 -23 12 -24 -3 -11
-15 11 -17 11 -17 -2 0 -9 -5 -19 -12 -23 -6 -4 -8 -3 -4 4 7 12 -20 10 -31
-3 -4 -4 -2 -5 5 -1 20 12 14 -4 -10 -25 -23 -20 -23 -20 -1 -10 32 16 42 13
13 -4 -19 -10 -29 -11 -40 -2 -8 6 -12 7 -8 3 4 -5 3 -15 -2 -22 -6 -6 -9 -18
-8 -25 2 -9 -7 -15 -23 -17 -22 -3 -26 -8 -23 -25 2 -12 2 -16 -2 -9 -6 13
-25 17 -23 5 4 -22 -3 -32 -23 -35 -16 -2 -24 -11 -26 -28 -2 -14 -8 -29 -13
-35 -7 -7 -8 -3 -4 10 6 19 6 19 -8 3 -8 -10 -18 -14 -23 -10 -4 4 -2 -1 5
-11 12 -15 12 -17 -4 -10 -14 5 -17 3 -12 -10 4 -11 1 -15 -13 -12 -12 2 -17
-1 -14 -10 3 -7 0 -16 -7 -21 -7 -4 -10 -3 -6 3 3 5 0 10 -7 10 -8 0 -12 -7
-8 -15 3 -10 1 -13 -6 -8 -6 3 -14 1 -18 -5 -4 -8 -3 -9 4 -5 7 4 12 1 12 -8
0 -8 -5 -18 -12 -22 -6 -4 -8 -3 -4 4 7 12 -20 10 -31 -3 -4 -4 -2 -5 5 -1 6
4 12 2 12 -3 0 -9 -19 -15 -41 -13 -3 1 -6 -6 -6 -13 0 -10 4 -12 12 -5 8 7
12 5 12 -5 0 -7 -3 -14 -6 -13 -3 0 -15 0 -26 -1 -17 -1 -18 -3 -5 -11 13 -9
13 -10 -1 -10 -8 0 -21 6 -28 13 -11 10 -12 9 -5 -3 5 -8 9 -21 10 -28 2 -11
0 -11 -13 0 -14 12 -15 11 -5 -9 11 -19 9 -21 -13 -18 -25 2 -25 2 -8 -18 18
-19 18 -20 -4 -6 -20 12 -24 11 -37 -6 -8 -11 -12 -24 -8 -29 3 -5 -2 -7 -11
-3 -9 3 -21 -1 -29 -11 -9 -11 -10 -14 0 -8 6 4 12 2 12 -3 0 -6 -5 -11 -11
-11 -5 0 -7 -6 -3 -12 5 -9 2 -9 -9 1 -20 16 -23 1 -4 -18 10 -10 8 -11 -7 -5
-14 5 -17 4 -11 -5 6 -10 3 -11 -15 -1 -20 11 -21 10 -10 -10 11 -20 10 -21
-9 -11 -14 8 -22 8 -27 -1 -5 -7 -3 -8 6 -3 9 5 11 4 6 -4 -4 -6 -11 -9 -16
-6 -5 3 -11 -3 -13 -12 -4 -17 -5 -17 -6 0 0 10 -5 16 -10 13 -11 -7 -9 13 3
32 7 12 4 12 -14 2 -15 -8 -20 -8 -16 -1 4 6 2 11 -4 11 -6 0 -8 5 -4 13 6 9
5 9 -8 0 -19 -16 -32 -5 -16 14 6 7 8 16 4 20 -3 3 -6 1 -6 -6 0 -8 -5 -7 -16
3 -8 9 -21 13 -27 10 -8 -5 -8 -2 1 7 15 16 16 29 1 29 -5 0 -8 -4 -5 -9 3 -5
-2 -12 -11 -15 -10 -4 -14 -4 -10 0 4 4 -1 17 -10 28 -15 17 -15 19 -1 8 11
-9 18 -10 23 -2 4 6 1 9 -7 8 -7 -2 -12 2 -11 8 1 7 -6 10 -17 7 -12 -3 -20 0
-20 6 0 7 -4 9 -10 6 -5 -3 -11 3 -11 14 -2 37 -4 41 -13 40 -5 0 -13 5 -18
13 -8 10 -9 10 -5 -2 2 -8 10 -14 16 -12 7 1 10 -2 6 -8 -8 -14 -41 8 -54 38
-7 13 -16 20 -23 16 -7 -4 -8 -3 -4 4 4 6 14 9 24 6 14 -5 14 -4 2 4 -8 6 -18
8 -22 6 -4 -3 -8 0 -8 5 0 6 -5 11 -11 11 -5 0 -7 -6 -3 -12 5 -9 2 -9 -9 1
-18 15 -23 26 -7 16 13 -8 13 5 0 25 -9 13 -10 13 -10 0 -1 -8 -9 -1 -18 16
-9 17 -23 29 -30 27 -7 -3 -12 -1 -11 4 1 4 1 15 0 23 -1 13 -2 13 -11 0 -8
-13 -10 -12 -10 3 0 9 -5 17 -11 17 -5 0 -7 -6 -3 -12 5 -9 2 -9 -9 1 -19 15
-23 26 -6 15 7 -4 10 -2 8 5 -3 7 -7 11 -11 9 -3 -2 -15 5 -25 15 -11 9 -23
14 -28 10 -4 -5 -3 2 4 14 16 31 14 41 -4 17 -14 -18 -14 -18 -10 4 3 18 0 22
-10 18 -8 -3 -14 0 -12 6 1 6 -4 13 -11 15 -8 3 -10 -1 -5 -13 6 -16 5 -17 -9
-4 -9 8 -12 17 -7 18 15 6 10 22 -7 22 -11 0 -14 5 -10 17 4 10 4 14 0 10 -10
-9 -45 33 -37 46 3 6 1 7 -5 3 -6 -4 -9 -14 -6 -24 5 -14 4 -14 -4 -3 -6 8 -8
20 -5 27 2 7 -5 18 -17 24 -13 7 -20 8 -16 2 3 -6 1 -14 -5 -18 -8 -4 -9 -3
-5 4 4 7 2 12 -5 12 -7 0 -5 9 7 22 19 22 19 22 0 8 -18 -14 -19 -13 -13 2 4
13 2 15 -10 11 -11 -4 -14 -2 -9 5 5 8 0 12 -14 12 -12 0 -19 4 -15 9 3 5 1
12 -5 16 -5 3 -10 1 -10 -6 0 -18 -11 -4 -14 17 -2 10 -9 20 -16 22 -7 3 -10
0 -6 -7 5 -7 1 -9 -9 -4 -12 4 -13 8 -5 13 9 5 9 13 1 27 -5 11 -7 24 -3 28 4
4 -4 2 -17 -5 -19 -10 -22 -10 -16 1 6 8 4 11 -7 7 -8 -4 -22 2 -31 13 -9 10
-12 19 -7 19 6 0 10 5 10 11 0 6 -6 9 -14 6 -8 -3 -22 4 -33 16 -16 19 -16 20
0 8 9 -8 20 -11 23 -8 9 9 -35 29 -48 21 -7 -4 -8 -3 -4 4 3 6 -3 16 -14 22
-18 10 -21 9 -18 -7 2 -12 -2 -17 -13 -15 -9 1 -16 -4 -16 -13 0 -8 5 -11 11
-8 6 4 5 -1 -3 -10 -7 -9 -9 -17 -3 -17 5 0 12 -7 15 -14 4 -11 1 -13 -10 -9
-13 5 -12 1 3 -23 13 -21 14 -26 3 -17 -12 10 -15 8 -14 -10 0 -12 4 -28 8
-34 5 -8 4 -13 -2 -13 -6 0 -11 -5 -11 -11 0 -5 5 -7 10 -4 14 9 12 -8 -3 -24
-7 -9 -7 -11 -1 -8 12 7 29 -21 19 -31 -3 -3 -5 0 -5 6 0 7 -4 12 -8 12 -5 0
-8 -22 -8 -49 1 -38 4 -47 14 -39 17 15 15 2 -4 -16 -8 -9 -11 -16 -6 -16 11
0 11 -18 -1 -37 -4 -6 -2 -15 4 -19 8 -5 9 -3 4 6 -5 9 -4 11 3 6 9 -5 8 -13
-1 -29 -12 -19 -13 -33 -8 -78 0 -5 7 -7 14 -4 6 4 5 0 -4 -7 -15 -12 -15 -15
-1 -27 13 -13 13 -16 -2 -27 -12 -8 -13 -13 -5 -16 8 -3 10 -14 5 -31 -4 -18
-11 -25 -19 -21 -8 5 -8 3 1 -7 11 -12 14 -12 22 1 5 8 10 10 10 5 0 -6 -5
-16 -12 -23 -7 -7 -8 -12 -4 -12 5 0 2 -8 -5 -17 -8 -9 -9 -14 -3 -10 17 10
26 -20 11 -35 -7 -7 -12 -27 -13 -45 0 -25 3 -30 13 -21 18 15 16 3 -3 -16 -8
-9 -11 -16 -6 -16 11 0 11 -18 -1 -37 -4 -6 -2 -15 4 -19 8 -5 9 -3 4 6 -5 9
-4 11 3 6 9 -5 8 -13 -1 -29 -12 -19 -13 -33 -8 -78 0 -5 7 -7 14 -4 6 4 5 0
-4 -7 -15 -12 -15 -15 -1 -27 13 -13 13 -16 -2 -27 -12 -8 -13 -13 -5 -16 8
-3 10 -14 5 -31 -4 -18 -11 -25 -19 -21 -8 5 -8 3 1 -7 11 -12 14 -12 22 1 5
8 10 10 10 5 0 -6 -5 -16 -12 -23 -7 -7 -8 -12 -4 -12 5 0 2 -8 -5 -17 -8 -9
-9 -14 -3 -10 17 10 26 -20 11 -35 -7 -7 -12 -27 -13 -45 0 -25 3 -30 13 -21
18 15 16 3 -3 -16 -8 -9 -11 -16 -6 -16 11 0 11 -18 -1 -37 -4 -6 -2 -15 4
-19 8 -5 9 -3 4 6 -5 9 -4 11 3 6 9 -5 8 -13 -1 -29 -12 -19 -13 -33 -8 -78 0
-5 7 -7 14 -4 6 4 5 0 -4 -7 -15 -12 -15 -15 -1 -27 13 -13 13 -16 -2 -27 -12
-8 -13 -13 -5 -16 8 -3 10 -14 5 -31 -4 -18 -11 -25 -19 -20 -9 5 -9 3 0 -9 7
-8 9 -19 5 -23 -4 -5 -1 -5 6 -1 16 9 16 -6 0 -23 -8 -9 -8 -11 -2 -8 18 10
27 -26 10 -38 -10 -8 -12 -16 -5 -26 7 -12 9 -12 9 0 0 8 3 11 7 7 5 -4 1 -13
-7 -19 -8 -7 -16 -18 -18 -26 -3 -12 0 -12 12 -1 21 16 21 6 0 -14 -8 -9 -11
-16 -6 -16 11 0 11 -18 -1 -37 -4 -6 -2 -15 4 -19 8 -5 9 -3 4 6 -5 9 -4 11 3
6 9 -5 7 -14 -4 -32 -9 -13 -12 -24 -6 -24 5 0 13 -8 16 -17 7 -18 -12 -35
-28 -26 -5 3 -6 1 -2 -6 4 -6 13 -8 19 -4 7 4 6 0 -2 -10 -11 -14 -11 -17 0
-17 8 0 5 -6 -7 -15 -18 -13 -18 -14 6 -8 23 6 24 5 10 -12 -14 -17 -14 -17 6
-7 17 9 21 9 20 -1 0 -6 4 -12 9 -12 6 0 9 3 8 7 -2 5 2 8 7 8 6 0 10 -4 10
-10 0 -5 5 -10 11 -10 5 0 8 4 5 9 -3 5 1 11 9 14 9 4 12 1 9 -8 -4 -10 0 -13
17 -10 12 3 29 -1 38 -8 12 -10 13 -9 6 2 -6 11 -2 13 21 7 18 -4 24 -3 16 2
-11 7 -9 10 6 14 14 4 19 2 15 -8 -3 -9 2 -12 18 -9 12 3 29 -1 38 -8 12 -10
13 -9 6 2 -6 11 -2 13 21 7 18 -4 24 -3 16 2 -11 7 -9 10 6 14 14 4 19 2 15
-8 -3 -9 2 -12 18 -9 12 3 29 -1 38 -8 12 -10 13 -9 6 2 -6 11 -2 13 21 7 18
-4 24 -3 16 2 -11 7 -9 10 6 14 14 4 19 2 15 -8 -3 -9 2 -12 18 -9 12 3 29 -1
38 -8 12 -10 13 -9 6 2 -6 11 -2 13 21 7 18 -4 24 -3 16 2 -11 7 -9 10 6 14
14 4 19 2 15 -8 -3 -9 2 -12 18 -9 12 3 29 -1 38 -8 12 -10 13 -9 6 2 -6 11
-2 13 21 7 18 -4 24 -3 16 2 -11 7 -9 10 6 14 14 4 19 2 15 -8 -3 -9 2 -12 18
-9 12 3 29 -1 38 -8 12 -10 13 -9 6 2 -6 11 -2 13 21 7 18 -4 24 -3 16 2 -11
7 -9 10 6 14 14 4 19 2 15 -8 -3 -9 2 -12 18 -9 12 3 29 -1 38 -8 12 -10 13
-9 6 2 -6 11 -2 13 21 7 18 -4 24 -3 16 2 -11 7 -9 10 6 14 14 4 19 2 15 -8
-3 -9 2 -12 18 -9 12 3 29 -1 38 -8 12 -10 13 -9 6 2 -6 11 -2 13 21 7 18 -4
24 -3 16 2 -11 7 -9 10 6 14 14 4 19 2 15 -7 -6 -18 26 -13 38 6 7 12 9 11 9
-3 0 -9 5 -20 12 -24 7 -5 8 -3 3 6 -6 10 -1 11 21 6 18 -4 24 -3 16 2 -11 7
-9 10 6 14 14 4 19 2 15 -8 -3 -9 2 -12 18 -9 12 3 29 -1 38 -8 12 -10 13 -9
6 2 -6 11 -2 13 21 7 18 -4 24 -3 16 2 -11 7 -9 10 6 14 14 4 19 2 15 -8 -3
-9 2 -12 18 -9 12 3 29 -1 38 -8 12 -10 13 -9 6 2 -6 11 -2 13 21 7 18 -4 24
-3 16 2 -11 7 -9 10 6 14 14 4 19 2 15 -8 -3 -9 2 -12 18 -9 12 3 29 -1 38 -8
12 -10 13 -9 6 2 -6 11 -2 13 21 7 18 -4 24 -3 16 2 -11 7 -9 10 6 14 14 4 19
2 15 -8 -3 -9 2 -12 18 -9 12 3 29 -1 38 -8 12 -10 13 -9 6 2 -6 11 -2 13 21
7 18 -4 24 -3 16 2 -11 7 -9 10 6 14 14 4 19 2 15 -8 -3 -9 2 -12 18 -9 12 3
29 -1 38 -8 12 -10 13 -9 6 2 -6 11 -2 13 21 7 18 -4 24 -3 16 2 -11 7 -9 10
6 14 14 4 19 2 15 -8 -3 -9 2 -12 18 -9 12 3 29 -1 38 -8 12 -10 13 -9 6 2 -6
11 -2 13 21 7 18 -4 24 -3 16 2 -11 7 -9 10 6 14 14 4 19 2 15 -8 -3 -9 2 -12
18 -9 12 3 29 -1 38 -8 12 -10 13 -9 6 2 -6 11 -2 13 21 7 18 -4 24 -3 16 2
-11 7 -9 10 6 14 14 4 19 2 15 -8 -3 -9 2 -12 18 -9 12 3 29 -1 38 -8 12 -10
13 -9 6 2 -6 11 -2 13 21 7 18 -4 24 -3 16 2 -11 7 -9 10 6 14 13 4 19 2 16
-6 -3 -8 10 -11 43 -10 27 1 48 3 48 4 0 1 12 3 28 4 15 2 27 -1 27 -5 0 -9
68 -4 78 6 4 4 -4 4 -17 0 -16 -5 -21 -4 -17 4 4 6 14 11 22 11 8 0 13 4 9 9
-3 5 2 17 11 25 8 9 11 16 6 16 -11 0 -10 50 1 68 5 7 4 12 -2 12 -10 0 -15
-14 -12 -32 0 -5 -3 -8 -9 -8 -12 0 -13 10 0 30 6 9 5 20 -3 29 -9 12 -9 13 1
7 7 -4 12 -1 12 9 0 9 -4 14 -9 10 -5 -3 -12 -1 -16 4 -3 6 6 8 22 6 16 -2 22
-2 15 1 -6 3 -10 10 -7 15 4 5 -2 6 -12 3 -17 -5 -17 -5 0 9 16 13 16 16 2 30
-19 19 -10 48 13 41 9 -3 6 2 -8 10 -14 8 -19 15 -12 16 6 0 12 7 12 16 0 8
-4 13 -9 10 -4 -3 -8 4 -7 15 0 11 7 23 14 28 11 7 11 11 -2 24 -19 19 -11 48
12 41 9 -3 6 2 -8 10 -14 8 -19 15 -12 16 6 0 12 7 12 16 0 8 -4 13 -9 10 -4
-3 -8 4 -7 15 0 11 7 23 14 28 11 7 11 11 -2 24 -19 19 -11 48 12 41 9 -3 6 2
-8 10 -14 8 -19 15 -12 16 6 0 12 7 12 16 0 8 -4 13 -9 10 -4 -3 -8 4 -7 15 0
11 7 23 14 28 11 7 11 11 -2 24 -19 19 -11 48 12 41 9 -3 6 2 -8 10 -14 8 -19
15 -12 16 6 0 12 7 12 16 0 8 -4 13 -9 10 -4 -3 -8 4 -7 15 0 11 7 23 14 28
11 7 11 11 -2 24 -19 19 -11 48 12 41 9 -3 6 2 -8 10 -14 8 -19 15 -12 16 6 0
12 7 12 16 0 8 -4 13 -9 10 -4 -3 -8 4 -7 15 0 11 7 23 14 28 11 7 11 11 -2
24 -19 19 -11 48 12 41 9 -3 6 2 -8 10 -14 8 -19 15 -12 16 6 0 12 7 12 16 0
8 -4 13 -9 10 -4 -3 -8 4 -7 15 0 11 7 23 14 28 11 7 11 11 -2 24 -19 19 -11
48 12 41 9 -3 6 2 -8 10 -14 8 -19 15 -12 16 6 0 12 7 12 16 0 8 -4 13 -9 10
-4 -3 -8 4 -7 15 0 11 7 23 14 28 11 7 11 11 -2 24 -19 19 -11 48 12 41 9 -3
6 2 -8 10 -14 8 -19 15 -12 16 6 0 12 7 12 16 0 8 -4 13 -9 10 -4 -3 -8 4 -7
15 0 11 7 23 14 28 11 7 11 11 -2 24 -19 19 -11 48 12 41 9 -3 6 2 -8 10 -14
8 -19 15 -12 16 6 0 12 7 12 16 0 8 -4 13 -9 10 -4 -3 -8 4 -7 15 0 11 7 23
14 28 11 7 11 11 -2 24 -19 19 -11 48 12 41 9 -3 6 2 -8 10 -14 8 -19 15 -12
16 6 0 12 7 12 16 0 8 -4 13 -9 10 -4 -3 -8 4 -7 15 0 11 7 23 14 28 11 7 11
11 -2 24 -19 19 -11 48 12 41 9 -3 6 2 -8 10 -14 8 -19 15 -12 16 6 0 12 7 12
16 0 8 -4 13 -9 10 -4 -3 -8 4 -7 15 0 11 7 23 14 28 11 7 10 11 -3 24 -12 12
-13 21 -6 35 7 13 6 23 -2 32 -9 10 -9 11 1 6 7 -5 12 -1 12 9 0 9 -4 14 -9
10 -5 -3 -12 -1 -16 4 -3 6 6 8 22 6 16 -2 22 -2 15 1 -6 3 -10 10 -7 15 4 5
-2 6 -12 3 -17 -5 -17 -5 0 9 17 14 17 16 1 32 -14 13 -14 19 -4 28 10 9 11 9
5 -2 -5 -9 -4 -12 3 -7 7 4 12 2 12 -5 0 -7 3 -10 6 -7 3 3 -1 16 -8 27 -11
18 -11 23 2 31 9 6 10 10 3 10 -7 0 -17 -8 -22 -17 -6 -10 -11 -13 -11 -6 0 7
6 18 13 25 8 6 11 22 9 35 -3 14 3 30 15 40 10 10 14 15 8 11 -7 -4 -15 -5
-18 -1 -4 3 -7 2 -7 -4 0 -5 -15 -9 -34 -9 -25 1 -32 4 -25 12 7 8 6 15 -2 20
-7 4 -9 3 -5 -4z m-2110 -468 c3 -8 2 -12 -4 -9 -6 3 -10 10 -10 16 0 14 7 11
14 -7z m-174 -14 c0 -5 -5 -10 -11 -10 -5 0 -7 5 -4 10 3 6 8 10 11 10 2 0 4
-4 4 -10z m1850 -4 c0 -2 -7 -7 -16 -10 -8 -3 -12 -2 -9 4 6 10 25 14 25 6z
m-1856 -146 c-6 -6 -10 -3 -10 10 0 13 4 16 10 10 7 -7 7 -13 0 -20z m11 -190
c-3 -5 -12 -10 -18 -10 -7 0 -6 4 3 10 19 12 23 12 15 0z m615 -94 c0 -3 -4
-8 -10 -11 -5 -3 -10 -1 -10 4 0 6 5 11 10 11 6 0 10 -2 10 -4z m-629 -199
c-10 -9 -11 -8 -5 6 3 10 9 15 12 12 3 -3 0 -11 -7 -18z m1183 -42 c-4 -8 -11
-15 -16 -15 -6 0 -5 6 2 15 7 8 14 15 16 15 2 0 1 -7 -2 -15z m-1169 -145 c-3
-5 -12 -10 -18 -10 -7 0 -6 4 3 10 19 12 23 12 15 0z m-14 -293 c-10 -9 -11
-8 -5 6 3 10 9 15 12 12 3 -3 0 -11 -7 -18z m14 -187 c-3 -5 -12 -10 -18 -10
-7 0 -6 4 3 10 19 12 23 12 15 0z m-1 -158 c3 -5 -1 -9 -9 -9 -8 0 -12 4 -9 9
3 4 7 8 9 8 2 0 6 -4 9 -8z m2346 -356 c0 -3 -4 -8 -10 -11 -5 -3 -10 -1 -10
4 0 6 5 11 10 11 6 0 10 -2 10 -4z m-165 -64 c-3 -3 -11 0 -18 7 -9 10 -8 11
6 5 10 -3 15 -9 12 -12z"/>
<path d="M122 2110 c-9 -14 -8 -19 4 -24 9 -3 12 -1 9 4 -13 21 7 31 30 16 15
-10 26 -12 30 -6 4 6 1 9 -7 8 -7 -2 -12 2 -11 7 3 18 -43 13 -55 -5z"/>
<path d="M2480 2106 c0 -2 7 -6 15 -10 8 -3 15 -1 15 4 0 6 -7 10 -15 10 -8 0
-15 -2 -15 -4z"/>
<path d="M2485 2041 c-6 -11 13 -26 22 -17 4 3 1 6 -6 6 -7 0 -9 5 -6 10 3 6
4 10 1 10 -3 0 -7 -4 -11 -9z"/>
<path d="M256 2022 c-2 -4 -1 -14 4 -22 7 -11 9 -9 7 8 -1 24 -3 26 -11 14z"/>
<path d="M2480 1946 c0 -2 7 -6 15 -10 8 -3 15 -1 15 4 0 6 -7 10 -15 10 -8 0
-15 -2 -15 -4z"/>
<path d="M365 1910 c-3 -6 1 -7 9 -4 18 7 21 14 7 14 -6 0 -13 -4 -16 -10z"/>
<path d="M2485 1881 c-6 -11 13 -26 22 -17 4 3 1 6 -6 6 -7 0 -9 5 -6 10 3 6
4 10 1 10 -3 0 -7 -4 -11 -9z"/>
<path d="M2480 1786 c0 -2 7 -6 15 -10 8 -3 15 -1 15 4 0 6 -7 10 -15 10 -8 0
-15 -2 -15 -4z"/>
<path d="M2485 1721 c-6 -11 13 -26 22 -17 4 3 1 6 -6 6 -7 0 -9 5 -6 10 3 6
4 10 1 10 -3 0 -7 -4 -11 -9z"/>
<path d="M1706 1692 c-3 -5 1 -9 9 -9 8 0 12 4 9 9 -3 4 -7 8 -9 8 -2 0 -6 -4
-9 -8z"/>
<path d="M649 1618 c14 -19 32 -15 30 5 0 8 -2 8 -6 -1 -4 -10 -8 -10 -21 0
-15 12 -16 11 -3 -4z"/>
<path d="M2480 1626 c0 -2 7 -6 15 -10 8 -3 15 -1 15 4 0 6 -7 10 -15 10 -8 0
-15 -2 -15 -4z"/>
<path d="M2485 1561 c-6 -11 13 -26 22 -17 4 3 1 6 -6 6 -7 0 -9 5 -6 10 3 6
4 10 1 10 -3 0 -7 -4 -11 -9z"/>
<path d="M2480 1466 c0 -2 7 -6 15 -10 8 -3 15 -1 15 4 0 6 -7 10 -15 10 -8 0
-15 -2 -15 -4z"/>
<path d="M2485 1401 c-6 -11 13 -26 22 -17 4 3 1 6 -6 6 -7 0 -9 5 -6 10 3 6
4 10 1 10 -3 0 -7 -4 -11 -9z"/>
<path d="M110 1359 c0 -5 5 -7 10 -4 6 3 10 8 10 11 0 2 -4 4 -10 4 -5 0 -10
-5 -10 -11z"/>
<path d="M2480 1306 c0 -2 7 -6 15 -10 8 -3 15 -1 15 4 0 6 -7 10 -15 10 -8 0
-15 -2 -15 -4z"/>
<path d="M2485 1241 c-6 -11 13 -26 22 -17 4 3 1 6 -6 6 -7 0 -9 5 -6 10 3 6
4 10 1 10 -3 0 -7 -4 -11 -9z"/>
<path d="M2480 1146 c0 -2 7 -6 15 -10 8 -3 15 -1 15 4 0 6 -7 10 -15 10 -8 0
-15 -2 -15 -4z"/>
<path d="M2485 1081 c-6 -11 13 -26 22 -17 4 3 1 6 -6 6 -7 0 -9 5 -6 10 3 6
4 10 1 10 -3 0 -7 -4 -11 -9z"/>
<path d="M2480 986 c0 -2 7 -6 15 -10 8 -3 15 -1 15 4 0 6 -7 10 -15 10 -8 0
-15 -2 -15 -4z"/>
<path d="M2485 921 c-6 -11 13 -26 22 -17 4 3 1 6 -6 6 -7 0 -9 5 -6 10 3 6 4
10 1 10 -3 0 -7 -4 -11 -9z"/>
<path d="M110 879 c0 -5 5 -7 10 -4 6 3 10 8 10 11 0 2 -4 4 -10 4 -5 0 -10
-5 -10 -11z"/>
<path d="M2480 826 c0 -2 7 -6 15 -10 8 -3 15 -1 15 4 0 6 -7 10 -15 10 -8 0
-15 -2 -15 -4z"/>
<path d="M2485 761 c-6 -11 13 -26 22 -17 4 3 1 6 -6 6 -7 0 -9 5 -6 10 3 6 4
10 1 10 -3 0 -7 -4 -11 -9z"/>
<path d="M2480 666 c0 -2 7 -6 15 -10 8 -3 15 -1 15 4 0 6 -7 10 -15 10 -8 0
-15 -2 -15 -4z"/>
<path d="M2485 601 c-6 -11 13 -26 22 -17 4 3 1 6 -6 6 -7 0 -9 5 -6 10 3 6 4
10 1 10 -3 0 -7 -4 -11 -9z"/>
<path d="M2480 506 c0 -2 7 -6 15 -10 8 -3 15 -1 15 4 0 6 -7 10 -15 10 -8 0
-15 -2 -15 -4z"/>
<path d="M2485 441 c-6 -11 13 -26 22 -17 4 3 1 6 -6 6 -7 0 -9 5 -6 10 3 6 4
10 1 10 -3 0 -7 -4 -11 -9z"/>
<path d="M110 400 c0 -5 5 -10 10 -10 6 0 10 5 10 10 0 6 -4 10 -10 10 -5 0
-10 -4 -10 -10z"/>
<path d="M2480 346 c0 -2 7 -6 15 -10 8 -3 15 -1 15 4 0 6 -7 10 -15 10 -8 0
-15 -2 -15 -4z"/>
</g>
</svg>
